<svg width="42" height="42" viewBox="0 0 42 42" fill="none" xmlns="http://www.w3.org/2000/svg">
<path d="M30.8 8C31.9139 8 32.9822 8.4425 33.7698 9.23015C34.5575 10.0178 35 11.0861 35 12.2V15C35 16.1139 34.5575 17.1822 33.7698 17.9698C32.9822 18.7575 31.9139 19.2 30.8 19.2H29.4V22H30.8C31.9139 22 32.9822 22.4425 33.7698 23.2302C34.5575 24.0178 35 25.0861 35 26.2V29C35 30.1139 34.5575 31.1822 33.7698 31.9698C32.9822 32.7575 31.9139 33.2 30.8 33.2H11.2C10.0861 33.2 9.0178 32.7575 8.23015 31.9698C7.4425 31.1822 7 30.1139 7 29V26.2C7 25.0861 7.4425 24.0178 8.23015 23.2302C9.0178 22.4425 10.0861 22 11.2 22H12.6V19.2H11.2C10.0861 19.2 9.0178 18.7575 8.23015 17.9698C7.4425 17.1822 7 16.1139 7 15V12.2C7 11.0861 7.4425 10.0178 8.23015 9.23015C9.0178 8.4425 10.0861 8 11.2 8H30.8V8ZM30.8 24.8H11.2C10.8287 24.8 10.4726 24.9475 10.2101 25.21C9.9475 25.4726 9.8 25.8287 9.8 26.2V29C9.8 29.3713 9.9475 29.7274 10.2101 29.9899C10.4726 30.2525 10.8287 30.4 11.2 30.4H30.8C31.1713 30.4 31.5274 30.2525 31.7899 29.9899C32.0525 29.7274 32.2 29.3713 32.2 29V26.2C32.2 25.8287 32.0525 25.4726 31.7899 25.21C31.5274 24.9475 31.1713 24.8 30.8 24.8V24.8ZM14 26.2C14.1839 26.2 14.3659 26.2362 14.5358 26.3065C14.7057 26.3769 14.8601 26.48 14.9901 26.61C15.1201 26.74 15.2233 26.8943 15.2936 27.0642C15.364 27.2341 15.4002 27.4161 15.4002 27.6C15.4002 27.7839 15.364 27.9659 15.2936 28.1358C15.2233 28.3057 15.1201 28.46 14.9901 28.59C14.8601 28.72 14.7057 28.8231 14.5358 28.8935C14.3659 28.9638 14.1839 29 14 29C13.6287 28.9999 13.2727 28.8524 13.0102 28.5899C12.7477 28.3273 12.6002 27.9713 12.6002 27.6C12.6002 27.2287 12.7477 26.8727 13.0102 26.6101C13.2727 26.3476 13.6287 26.2001 14 26.2ZM26.6 19.2H15.4V22H26.6V19.2V19.2ZM30.8 10.8H11.2C10.8287 10.8 10.4726 10.9475 10.2101 11.2101C9.9475 11.4726 9.8 11.8287 9.8 12.2V15C9.8 15.3713 9.9475 15.7274 10.2101 15.9899C10.4726 16.2525 10.8287 16.4 11.2 16.4H30.8C31.1713 16.4 31.5274 16.2525 31.7899 15.9899C32.0525 15.7274 32.2 15.3713 32.2 15V12.2C32.2 11.8287 32.0525 11.4726 31.7899 11.2101C31.5274 10.9475 31.1713 10.8 30.8 10.8V10.8ZM14 12.2C14.1839 12.2 14.3659 12.2362 14.5358 12.3065C14.7057 12.3769 14.8601 12.48 14.9901 12.61C15.1201 12.74 15.2233 12.8943 15.2936 13.0642C15.364 13.2341 15.4002 13.4161 15.4002 13.6C15.4002 13.7839 15.364 13.9659 15.2936 14.1358C15.2233 14.3057 15.1201 14.46 14.9901 14.59C14.8601 14.72 14.7057 14.8231 14.5358 14.8935C14.3659 14.9638 14.1839 15 14 15C13.6287 14.9999 13.2727 14.8524 13.0102 14.5899C12.7477 14.3273 12.6002 13.9713 12.6002 13.6C12.6002 13.2287 12.7477 12.8727 13.0102 12.6101C13.2727 12.3476 13.6287 12.2001 14 12.2Z" fill="#383636"/>
</svg>
